<svg xmlns="http://www.w3.org/2000/svg" width="20" height="23"><path data-name="Forma 1" d="M4.2 9.164h2.239v2.24H4.2v-2.24zm0-4.482h2.239v2.241H4.2V4.682zm4.478 0h2.239v2.241H8.678V4.682zm5.6 7.155a1.961 1.961 0 1 0 1.959 1.961 1.962 1.962 0 0 0-1.963-1.961zm.839-3.708V0H0v20.927h12.626L14.274 23l4.493-5.653A5.669 5.669 0 0 0 20 13.8a5.739 5.739 0 0 0-4.887-5.671zM1.679 19.246V1.68h11.755v6.449a5.738 5.738 0 0 0-4.886 5.669 5.673 5.673 0 0 0 1.234 3.551l1.508 1.9H1.679zm15.772-2.943l-3.177 4-3.176-4a4 4 0 0 1-.871-2.507 4.047 4.047 0 1 1 8.094 0 4.005 4.005 0 0 1-.87 2.504zM4.2 14.164h2.239v2.24H4.2v-2.24z" fill="#fff" fill-rule="evenodd"/></svg>