<svg xmlns="http://www.w3.org/2000/svg" width="16" height="16"><path data-name="Forma 1" d="M15.556 10.632a8.006 8.006 0 0 0 0-5.264.628.628 0 0 0-.025-.073 8 8 0 0 0-15.062 0 .6.6 0 0 0-.025.073 8 8 0 0 0 0 5.264.612.612 0 0 0 .025.073 8 8 0 0 0 15.062 0 .628.628 0 0 0 .025-.073zM8 14.855c-.305 0-.8-.552-1.207-1.784a12.574 12.574 0 0 1-.472-2.021h3.358a12.644 12.644 0 0 1-.472 2.021C8.8 14.3 8.305 14.855 8 14.855zM6.182 9.9a21.299 21.299 0 0 1 0-3.8h3.636a21.299 21.299 0 0 1 0 3.8H6.182zM1.145 8a6.84 6.84 0 0 1 .269-1.9h3.617a22.162 22.162 0 0 0 0 3.8H1.414A6.84 6.84 0 0 1 1.145 8zM8 1.145c.305 0 .8.552 1.207 1.784a12.618 12.618 0 0 1 .472 2.021H6.321a12.574 12.574 0 0 1 .472-2.021C7.2 1.7 7.7 1.145 8 1.145zm2.969 4.952h3.617a6.89 6.89 0 0 1 0 3.806h-3.617a22.577 22.577 0 0 0 0-3.803zm3.168-1.147h-3.3a11 11 0 0 0-1.045-3.566 6.88 6.88 0 0 1 4.345 3.566zM6.208 1.384A11 11 0 0 0 5.163 4.95h-3.3a6.883 6.883 0 0 1 4.345-3.566zM1.863 11.05h3.3a11.009 11.009 0 0 0 1.045 3.566 6.883 6.883 0 0 1-4.346-3.566zm7.93 3.566a11 11 0 0 0 1.045-3.566h3.3a6.88 6.88 0 0 1-4.346 3.566z" fill-rule="evenodd"/></svg>