<svg xmlns="http://www.w3.org/2000/svg" viewBox="0 0 15.19 14" width="15px" height="14px"><defs><style>.cls-1{fill:#fff;}</style></defs><title>filter</title><g id="Слой_2" data-name="Слой 2"><g id="Слой_1-2" data-name="Слой 1"><path class="cls-1" d="M15.14.26A.44.44,0,0,0,14.73,0H.46A.47.47,0,0,0,0,.26.46.46,0,0,0,.11.75L5.59,7.41v6.13a.44.44,0,0,0,.22.39.42.42,0,0,0,.24.07.46.46,0,0,0,.2-.05l3.09-1.53A.45.45,0,0,0,9.59,12V7.41L15.08.75A.44.44,0,0,0,15.14.26ZM8.34,6.59h0a1,1,0,0,0-.23.65v4.13l-1,.51V7.24a1,1,0,0,0-.24-.65l-4.2-5.1h9.9Z"/></g></g></svg>