<svg xmlns="http://www.w3.org/2000/svg" viewBox="0 0 14 14" width="14px" height="14px"><defs><style>.cls-1{fill:#fff;}</style></defs><title>help</title><g id="Слой_2" data-name="Слой 2"><g id="Слой_1-2" data-name="Слой 1"><path class="cls-1" d="M7,0a7,7,0,1,0,7,7A7,7,0,0,0,7,0Zm5.53,7A5.53,5.53,0,1,1,7,1.47,5.54,5.54,0,0,1,12.53,7Z"/><rect class="cls-1" x="6.02" y="8.78" width="1.83" height="1.8"/><path class="cls-1" d="M8.92,4.1a2.37,2.37,0,0,0-.77-.49A3.13,3.13,0,0,0,7,3.41,2.57,2.57,0,0,0,6,3.6a2.1,2.1,0,0,0-.77.52,2.31,2.31,0,0,0-.5.79,2.8,2.8,0,0,0-.19,1v.19H6.26V5.9a2,2,0,0,1,0-.43,1.05,1.05,0,0,1,.15-.32A.74.74,0,0,1,6.69,5,.75.75,0,0,1,7,4.87.58.58,0,0,1,7.49,5a.66.66,0,0,1,.15.5.53.53,0,0,1-.06.32,1.05,1.05,0,0,1-.22.26L7,6.38a2.55,2.55,0,0,0-.38.36,2,2,0,0,0-.33.5A2.44,2.44,0,0,0,6.15,8V8.6H7.78V8.08a.76.76,0,0,1,.15-.38,2,2,0,0,1,.29-.29,3.89,3.89,0,0,1,.39-.28A2.19,2.19,0,0,0,9,6.74a2,2,0,0,0,.32-.54,2.35,2.35,0,0,0,.13-.8,2,2,0,0,0-.13-.65A1.89,1.89,0,0,0,8.92,4.1Z"/></g></g></svg>