<svg xmlns="http://www.w3.org/2000/svg" viewBox="0 0 23.47 22.91" width="24px" height="23px"><defs><style>.cls-1{fill:#fff;}</style></defs><title>phone</title><g id="Слой_2" data-name="Слой 2"><g id="Слой_1-2" data-name="Слой 1"><path class="cls-1" d="M16.15,12.25a.55.55,0,1,0,1.09.1.84.84,0,0,1,0-.25v-.26A6.12,6.12,0,0,0,17,9.93a5.83,5.83,0,0,0-1.33-2.1,5.77,5.77,0,0,0-2.55-1.49,6.31,6.31,0,0,0-1.44-.18,4.35,4.35,0,0,0-.5,0l-.48.07a.52.52,0,0,0-.43.62.51.51,0,0,0,.61.43,2.58,2.58,0,0,1,.39,0h.07l.34,0a4.52,4.52,0,0,1,3.24,1.35,4.64,4.64,0,0,1,1.35,3.2V12A.52.52,0,0,0,16.15,12.25Zm3.08.28a.54.54,0,0,0,.5.59.55.55,0,0,0,.59-.5,6.27,6.27,0,0,0,0-.75,9.92,9.92,0,0,0-.12-1.46,8.74,8.74,0,0,0-7.91-7.26c-.23,0-.48,0-.71,0s-.5,0-.75,0a6.56,6.56,0,0,0-.76.09.53.53,0,1,0,.19,1l.45-.07.21,0c.23,0,.45,0,.66,0a7.67,7.67,0,0,1,2.21.32A7.54,7.54,0,0,1,17,6.41a7.65,7.65,0,0,1,2.26,5.41v.23A1.69,1.69,0,0,0,19.23,12.53Zm.77-9A11.81,11.81,0,0,0,11.59,0c-.35,0-.69,0-1,.05a7.44,7.44,0,0,0-1,.13A.52.52,0,0,0,9.1.8a.52.52,0,0,0,.62.43l.45-.07a3.88,3.88,0,0,1,.48,0c.32,0,.62-.05.94-.05A10.75,10.75,0,0,1,22.35,11.84v.51c0,.13,0,.27,0,.43a.56.56,0,0,0,.5.59.54.54,0,0,0,.59-.5c0-.34,0-.68,0-1A11.8,11.8,0,0,0,20,3.49Zm2.63,13.83-4-2.17c-1.35-.73-1.39-.25-2.81,1.26-.34.36-1,1.32-1.73,1.14-1.57-.39-4.52-2.69-5.47-3.74-.46-.51-2.42-2.9-2.44-3.68,0-1.18,2.55-1.78,1.71-4L6,2.05C4.36-1.83-.37,4.38,0,7.28,1,14.42,13.55,26,20.53,22.16,22.08,21.29,24.18,18.26,22.63,17.32Z"/></g></g></svg>